<?xml version="1.0" encoding="utf-8"?>
<!-- Svg Vector Icons : http://www.onlinewebfonts.com/icon -->
<!DOCTYPE svg PUBLIC "-//W3C//DTD SVG 1.1//EN" "http://www.w3.org/Graphics/SVG/1.1/DTD/svg11.dtd">
<svg version="1.1" xmlns="http://www.w3.org/2000/svg" xmlns:xlink="http://www.w3.org/1999/xlink" x="0px" y="0px" viewBox="0 0 1000 1000" enable-background="new 0 0 1000 1000" xml:space="preserve">
<metadata> Svg Vector Icons : http://www.onlinewebfonts.com/icon </metadata>
<g><path d="M369.3,10H108c-54,0-98,44-98,98v261.3c0,54,44,98,98,98h261.3c54,0,98-44,98-98V108C467.3,54,423.4,10,369.3,10z M402,369.3c0,18-14.6,32.7-32.7,32.7H108c-18,0-32.7-14.7-32.7-32.7V108c0-18,14.7-32.7,32.7-32.7h261.3c18,0,32.7,14.6,32.7,32.7V369.3z M892,10H630.7c-54,0-98,44-98,98v261.3c0,54,44,98,98,98H892c54,0,98-44,98-98l0-261.3C990,54,946,10,892,10z M924.7,369.3c0,18-14.6,32.7-32.7,32.7H630.7c-18,0-32.7-14.7-32.7-32.7V108c0-18,14.6-32.7,32.7-32.7H892c18,0,32.7,14.6,32.7,32.7L924.7,369.3L924.7,369.3z M369.3,532.7H108c-54,0-98,44-98,98V892c0,54,44,98,98,98h261.3c54,0,98-44,98-98V630.7C467.3,576.6,423.4,532.7,369.3,532.7z M402,892c0,18-14.6,32.7-32.7,32.7H108c-18,0-32.7-14.7-32.7-32.7V630.7c0-18,14.7-32.7,32.7-32.7h261.3c18,0,32.7,14.6,32.7,32.7V892z M892,532.7H630.7c-54,0-98,44-98,98V892c0,54,44,98,98,98H892c54,0,98-44,98-98l0-261.3C990,576.6,946,532.7,892,532.7z M924.7,892c0,18-14.6,32.7-32.7,32.7H630.7c-18,0-32.7-14.7-32.7-32.7V630.7c0-18,14.6-32.7,32.7-32.7H892c18,0,32.7,14.6,32.7,32.7L924.7,892L924.7,892z"/></g>
</svg>